<mxfile host="app.diagrams.net" modified="2024-06-25T15:18:05.504Z" agent="Mozilla/5.0 (Windows NT 10.0; Win64; x64) AppleWebKit/537.36 (KHTML, like Gecko) Chrome/126.0.0.0 Safari/537.36" etag="jE_zbivvONjlhpKKGTiM" version="24.6.2" type="device">
  <diagram name="Page-1" id="XunEHdQ2r4Ur_lCHkOZh">
    <mxGraphModel dx="1434" dy="900" grid="1" gridSize="10" guides="1" tooltips="1" connect="1" arrows="1" fold="1" page="1" pageScale="1" pageWidth="850" pageHeight="1100" math="0" shadow="0">
      <root>
        <mxCell id="0" />
        <mxCell id="1" parent="0" />
        <mxCell id="7yGEbL5kupSrWjwdthF7-4" value="Public subnet" style="points=[[0,0],[0.25,0],[0.5,0],[0.75,0],[1,0],[1,0.25],[1,0.5],[1,0.75],[1,1],[0.75,1],[0.5,1],[0.25,1],[0,1],[0,0.75],[0,0.5],[0,0.25]];outlineConnect=0;gradientColor=none;html=1;whiteSpace=wrap;fontSize=12;fontStyle=0;container=1;pointerEvents=0;collapsible=0;recursiveResize=0;shape=mxgraph.aws4.group;grIcon=mxgraph.aws4.group_security_group;grStroke=0;strokeColor=#7AA116;fillColor=#F2F6E8;verticalAlign=top;align=left;spacingLeft=30;fontColor=#248814;dashed=0;" vertex="1" parent="1">
          <mxGeometry x="41" y="198" width="320" height="133" as="geometry" />
        </mxCell>
        <mxCell id="7yGEbL5kupSrWjwdthF7-7" value="" style="sketch=0;outlineConnect=0;fontColor=#232F3E;gradientColor=none;fillColor=#8C4FFF;strokeColor=none;dashed=0;verticalLabelPosition=bottom;verticalAlign=top;align=center;html=1;fontSize=12;fontStyle=0;aspect=fixed;pointerEvents=1;shape=mxgraph.aws4.nat_gateway;" vertex="1" parent="7yGEbL5kupSrWjwdthF7-4">
          <mxGeometry x="180" y="25" width="78" height="78" as="geometry" />
        </mxCell>
        <mxCell id="7yGEbL5kupSrWjwdthF7-9" value="" style="sketch=0;outlineConnect=0;fontColor=#232F3E;gradientColor=none;fillColor=#ED7100;strokeColor=none;dashed=0;verticalLabelPosition=bottom;verticalAlign=top;align=center;html=1;fontSize=12;fontStyle=0;aspect=fixed;pointerEvents=1;shape=mxgraph.aws4.elastic_ip_address;" vertex="1" parent="7yGEbL5kupSrWjwdthF7-4">
          <mxGeometry x="130" y="54" width="48" height="20" as="geometry" />
        </mxCell>
        <mxCell id="7yGEbL5kupSrWjwdthF7-12" value="" style="endArrow=classic;html=1;rounded=0;" edge="1" parent="7yGEbL5kupSrWjwdthF7-4" target="7yGEbL5kupSrWjwdthF7-6">
          <mxGeometry width="50" height="50" relative="1" as="geometry">
            <mxPoint x="220" y="25" as="sourcePoint" />
            <mxPoint x="270" y="-25" as="targetPoint" />
            <Array as="points">
              <mxPoint x="219" y="-21" />
            </Array>
          </mxGeometry>
        </mxCell>
        <mxCell id="7yGEbL5kupSrWjwdthF7-17" value="Elastic IP" style="text;html=1;align=center;verticalAlign=middle;whiteSpace=wrap;rounded=0;" vertex="1" parent="7yGEbL5kupSrWjwdthF7-4">
          <mxGeometry x="100" y="74" width="60" height="30" as="geometry" />
        </mxCell>
        <mxCell id="7yGEbL5kupSrWjwdthF7-1" value="VPC" style="points=[[0,0],[0.25,0],[0.5,0],[0.75,0],[1,0],[1,0.25],[1,0.5],[1,0.75],[1,1],[0.75,1],[0.5,1],[0.25,1],[0,1],[0,0.75],[0,0.5],[0,0.25]];outlineConnect=0;gradientColor=none;html=1;whiteSpace=wrap;fontSize=12;fontStyle=0;container=1;pointerEvents=0;collapsible=0;recursiveResize=0;shape=mxgraph.aws4.group;grIcon=mxgraph.aws4.group_vpc2;strokeColor=#8C4FFF;fillColor=none;verticalAlign=top;align=left;spacingLeft=30;fontColor=#AAB7B8;dashed=0;" vertex="1" parent="1">
          <mxGeometry x="9" y="157" width="820" height="590" as="geometry" />
        </mxCell>
        <mxCell id="7yGEbL5kupSrWjwdthF7-2" value="Public subnet" style="points=[[0,0],[0.25,0],[0.5,0],[0.75,0],[1,0],[1,0.25],[1,0.5],[1,0.75],[1,1],[0.75,1],[0.5,1],[0.25,1],[0,1],[0,0.75],[0,0.5],[0,0.25]];outlineConnect=0;gradientColor=none;html=1;whiteSpace=wrap;fontSize=12;fontStyle=0;container=1;pointerEvents=0;collapsible=0;recursiveResize=0;shape=mxgraph.aws4.group;grIcon=mxgraph.aws4.group_security_group;grStroke=0;strokeColor=#7AA116;fillColor=#F2F6E8;verticalAlign=top;align=left;spacingLeft=30;fontColor=#248814;dashed=0;" vertex="1" parent="7yGEbL5kupSrWjwdthF7-1">
          <mxGeometry x="470" y="50" width="320" height="133" as="geometry" />
        </mxCell>
        <mxCell id="7yGEbL5kupSrWjwdthF7-10" value="" style="sketch=0;outlineConnect=0;fontColor=#232F3E;gradientColor=none;fillColor=#ED7100;strokeColor=none;verticalLabelPosition=bottom;verticalAlign=top;align=center;html=1;fontSize=12;fontStyle=0;aspect=fixed;pointerEvents=1;shape=mxgraph.aws4.elastic_ip_address;direction=west;" vertex="1" parent="7yGEbL5kupSrWjwdthF7-2">
          <mxGeometry x="158" y="54" width="48" height="20" as="geometry" />
        </mxCell>
        <mxCell id="7yGEbL5kupSrWjwdthF7-8" value="" style="sketch=0;outlineConnect=0;fontColor=#232F3E;gradientColor=none;fillColor=#8C4FFF;strokeColor=none;dashed=0;verticalLabelPosition=bottom;verticalAlign=top;align=center;html=1;fontSize=12;fontStyle=0;aspect=fixed;pointerEvents=1;shape=mxgraph.aws4.nat_gateway;" vertex="1" parent="7yGEbL5kupSrWjwdthF7-2">
          <mxGeometry x="75" y="25" width="78" height="78" as="geometry" />
        </mxCell>
        <mxCell id="7yGEbL5kupSrWjwdthF7-13" value="" style="endArrow=classic;html=1;rounded=0;" edge="1" parent="7yGEbL5kupSrWjwdthF7-2" target="7yGEbL5kupSrWjwdthF7-6">
          <mxGeometry width="50" height="50" relative="1" as="geometry">
            <mxPoint x="102" y="25" as="sourcePoint" />
            <mxPoint x="-18" y="-34" as="targetPoint" />
            <Array as="points">
              <mxPoint x="102" y="-30" />
            </Array>
          </mxGeometry>
        </mxCell>
        <mxCell id="7yGEbL5kupSrWjwdthF7-16" value="Nat Gateway" style="text;html=1;align=center;verticalAlign=middle;whiteSpace=wrap;rounded=0;" vertex="1" parent="7yGEbL5kupSrWjwdthF7-2">
          <mxGeometry x="141" y="10" width="60" height="30" as="geometry" />
        </mxCell>
        <mxCell id="7yGEbL5kupSrWjwdthF7-18" value="Elastic IP" style="text;html=1;align=center;verticalAlign=middle;whiteSpace=wrap;rounded=0;" vertex="1" parent="7yGEbL5kupSrWjwdthF7-2">
          <mxGeometry x="163" y="74" width="60" height="30" as="geometry" />
        </mxCell>
        <mxCell id="7yGEbL5kupSrWjwdthF7-71" value="eu-west-2b" style="text;html=1;align=center;verticalAlign=middle;whiteSpace=wrap;rounded=0;" vertex="1" parent="7yGEbL5kupSrWjwdthF7-2">
          <mxGeometry x="250" width="70" height="30" as="geometry" />
        </mxCell>
        <mxCell id="7yGEbL5kupSrWjwdthF7-5" value="" style="sketch=0;outlineConnect=0;fontColor=#232F3E;gradientColor=none;fillColor=#8C4FFF;strokeColor=none;dashed=0;verticalLabelPosition=bottom;verticalAlign=top;align=center;html=1;fontSize=12;fontStyle=0;aspect=fixed;pointerEvents=1;shape=mxgraph.aws4.application_load_balancer;" vertex="1" parent="7yGEbL5kupSrWjwdthF7-1">
          <mxGeometry x="371" y="88" width="78" height="78" as="geometry" />
        </mxCell>
        <mxCell id="7yGEbL5kupSrWjwdthF7-19" value="Private subnet" style="points=[[0,0],[0.25,0],[0.5,0],[0.75,0],[1,0],[1,0.25],[1,0.5],[1,0.75],[1,1],[0.75,1],[0.5,1],[0.25,1],[0,1],[0,0.75],[0,0.5],[0,0.25]];outlineConnect=0;gradientColor=none;html=1;whiteSpace=wrap;fontSize=12;fontStyle=0;container=1;pointerEvents=0;collapsible=0;recursiveResize=0;shape=mxgraph.aws4.group;grIcon=mxgraph.aws4.group_security_group;grStroke=0;strokeColor=#00A4A6;fillColor=#E6F6F7;verticalAlign=top;align=left;spacingLeft=30;fontColor=#147EBA;dashed=0;" vertex="1" parent="7yGEbL5kupSrWjwdthF7-1">
          <mxGeometry x="31" y="241" width="320" height="159" as="geometry" />
        </mxCell>
        <mxCell id="7yGEbL5kupSrWjwdthF7-34" value="" style="endArrow=classic;html=1;rounded=0;" edge="1" parent="7yGEbL5kupSrWjwdthF7-19">
          <mxGeometry width="50" height="50" relative="1" as="geometry">
            <mxPoint x="221" y="43" as="sourcePoint" />
            <mxPoint x="221.71323529411757" y="-103" as="targetPoint" />
            <Array as="points">
              <mxPoint x="221" y="-6" />
            </Array>
          </mxGeometry>
        </mxCell>
        <mxCell id="7yGEbL5kupSrWjwdthF7-69" value="eu-west-2a" style="text;html=1;align=center;verticalAlign=middle;whiteSpace=wrap;rounded=0;" vertex="1" parent="7yGEbL5kupSrWjwdthF7-19">
          <mxGeometry y="22" width="70" height="30" as="geometry" />
        </mxCell>
        <mxCell id="7yGEbL5kupSrWjwdthF7-20" value="Private subnet" style="points=[[0,0],[0.25,0],[0.5,0],[0.75,0],[1,0],[1,0.25],[1,0.5],[1,0.75],[1,1],[0.75,1],[0.5,1],[0.25,1],[0,1],[0,0.75],[0,0.5],[0,0.25]];outlineConnect=0;gradientColor=none;html=1;whiteSpace=wrap;fontSize=12;fontStyle=0;container=1;pointerEvents=0;collapsible=0;recursiveResize=0;shape=mxgraph.aws4.group;grIcon=mxgraph.aws4.group_security_group;grStroke=0;strokeColor=#00A4A6;fillColor=#E6F6F7;verticalAlign=top;align=left;spacingLeft=30;fontColor=#147EBA;dashed=0;" vertex="1" parent="7yGEbL5kupSrWjwdthF7-1">
          <mxGeometry x="470" y="241" width="320" height="159" as="geometry" />
        </mxCell>
        <mxCell id="7yGEbL5kupSrWjwdthF7-72" value="eu-west-2b" style="text;html=1;align=center;verticalAlign=middle;whiteSpace=wrap;rounded=0;" vertex="1" parent="7yGEbL5kupSrWjwdthF7-20">
          <mxGeometry x="250" width="70" height="30" as="geometry" />
        </mxCell>
        <mxCell id="7yGEbL5kupSrWjwdthF7-6" value="" style="sketch=0;outlineConnect=0;fontColor=#232F3E;gradientColor=none;fillColor=#8C4FFF;strokeColor=none;dashed=0;verticalLabelPosition=bottom;verticalAlign=top;align=center;html=1;fontSize=12;fontStyle=0;aspect=fixed;pointerEvents=1;shape=mxgraph.aws4.internet_gateway;" vertex="1" parent="7yGEbL5kupSrWjwdthF7-1">
          <mxGeometry x="380" y="-10" width="60" height="60" as="geometry" />
        </mxCell>
        <mxCell id="7yGEbL5kupSrWjwdthF7-14" value="" style="endArrow=classic;html=1;rounded=0;" edge="1" parent="7yGEbL5kupSrWjwdthF7-1" source="7yGEbL5kupSrWjwdthF7-6" target="7yGEbL5kupSrWjwdthF7-5">
          <mxGeometry width="50" height="50" relative="1" as="geometry">
            <mxPoint x="413" y="30" as="sourcePoint" />
            <mxPoint x="533" y="89" as="targetPoint" />
          </mxGeometry>
        </mxCell>
        <mxCell id="7yGEbL5kupSrWjwdthF7-21" value="Private subnet" style="points=[[0,0],[0.25,0],[0.5,0],[0.75,0],[1,0],[1,0.25],[1,0.5],[1,0.75],[1,1],[0.75,1],[0.5,1],[0.25,1],[0,1],[0,0.75],[0,0.5],[0,0.25]];outlineConnect=0;gradientColor=none;html=1;whiteSpace=wrap;fontSize=12;fontStyle=0;container=1;pointerEvents=0;collapsible=0;recursiveResize=0;shape=mxgraph.aws4.group;grIcon=mxgraph.aws4.group_security_group;grStroke=0;strokeColor=#00A4A6;fillColor=#E6F6F7;verticalAlign=top;align=left;spacingLeft=30;fontColor=#147EBA;dashed=0;" vertex="1" parent="7yGEbL5kupSrWjwdthF7-1">
          <mxGeometry x="31" y="441" width="320" height="130" as="geometry" />
        </mxCell>
        <mxCell id="7yGEbL5kupSrWjwdthF7-27" value="" style="sketch=0;outlineConnect=0;fontColor=#232F3E;gradientColor=none;fillColor=#C925D1;strokeColor=none;dashed=0;verticalLabelPosition=bottom;verticalAlign=top;align=center;html=1;fontSize=12;fontStyle=0;aspect=fixed;pointerEvents=1;shape=mxgraph.aws4.rds_instance;" vertex="1" parent="7yGEbL5kupSrWjwdthF7-21">
          <mxGeometry x="180" y="41" width="61" height="61" as="geometry" />
        </mxCell>
        <mxCell id="7yGEbL5kupSrWjwdthF7-44" value="RDS&amp;nbsp;&lt;br&gt;Security Group" style="text;html=1;align=center;verticalAlign=middle;whiteSpace=wrap;rounded=0;" vertex="1" parent="7yGEbL5kupSrWjwdthF7-21">
          <mxGeometry x="105" y="56" width="60" height="30" as="geometry" />
        </mxCell>
        <mxCell id="7yGEbL5kupSrWjwdthF7-70" value="eu-west-2a" style="text;html=1;align=center;verticalAlign=middle;whiteSpace=wrap;rounded=0;" vertex="1" parent="7yGEbL5kupSrWjwdthF7-21">
          <mxGeometry y="22" width="70" height="30" as="geometry" />
        </mxCell>
        <mxCell id="7yGEbL5kupSrWjwdthF7-22" value="Private subnet" style="points=[[0,0],[0.25,0],[0.5,0],[0.75,0],[1,0],[1,0.25],[1,0.5],[1,0.75],[1,1],[0.75,1],[0.5,1],[0.25,1],[0,1],[0,0.75],[0,0.5],[0,0.25]];outlineConnect=0;gradientColor=none;html=1;whiteSpace=wrap;fontSize=12;fontStyle=0;container=1;pointerEvents=0;collapsible=0;recursiveResize=0;shape=mxgraph.aws4.group;grIcon=mxgraph.aws4.group_security_group;grStroke=0;strokeColor=#00A4A6;fillColor=#E6F6F7;verticalAlign=top;align=left;spacingLeft=30;fontColor=#147EBA;dashed=0;" vertex="1" parent="7yGEbL5kupSrWjwdthF7-1">
          <mxGeometry x="470" y="441" width="320" height="130" as="geometry" />
        </mxCell>
        <mxCell id="7yGEbL5kupSrWjwdthF7-28" value="" style="sketch=0;outlineConnect=0;fontColor=#232F3E;gradientColor=none;fillColor=#C925D1;strokeColor=none;dashed=0;verticalLabelPosition=bottom;verticalAlign=top;align=center;html=1;fontSize=12;fontStyle=0;aspect=fixed;pointerEvents=1;shape=mxgraph.aws4.rds_instance;" vertex="1" parent="7yGEbL5kupSrWjwdthF7-22">
          <mxGeometry x="92" y="39" width="61" height="61" as="geometry" />
        </mxCell>
        <mxCell id="7yGEbL5kupSrWjwdthF7-73" value="eu-west-2b" style="text;html=1;align=center;verticalAlign=middle;whiteSpace=wrap;rounded=0;" vertex="1" parent="7yGEbL5kupSrWjwdthF7-22">
          <mxGeometry x="250" width="70" height="30" as="geometry" />
        </mxCell>
        <mxCell id="7yGEbL5kupSrWjwdthF7-23" value="Auto Scaling group" style="points=[[0,0],[0.25,0],[0.5,0],[0.75,0],[1,0],[1,0.25],[1,0.5],[1,0.75],[1,1],[0.75,1],[0.5,1],[0.25,1],[0,1],[0,0.75],[0,0.5],[0,0.25]];outlineConnect=0;gradientColor=none;html=1;whiteSpace=wrap;fontSize=12;fontStyle=0;container=1;pointerEvents=0;collapsible=0;recursiveResize=0;shape=mxgraph.aws4.groupCenter;grIcon=mxgraph.aws4.group_auto_scaling_group;grStroke=1;strokeColor=#D86613;fillColor=none;verticalAlign=top;align=center;fontColor=#D86613;dashed=1;spacingTop=25;" vertex="1" parent="7yGEbL5kupSrWjwdthF7-1">
          <mxGeometry x="120" y="271" width="620" height="110" as="geometry" />
        </mxCell>
        <mxCell id="7yGEbL5kupSrWjwdthF7-24" value="" style="sketch=0;points=[[0,0,0],[0.25,0,0],[0.5,0,0],[0.75,0,0],[1,0,0],[0,1,0],[0.25,1,0],[0.5,1,0],[0.75,1,0],[1,1,0],[0,0.25,0],[0,0.5,0],[0,0.75,0],[1,0.25,0],[1,0.5,0],[1,0.75,0]];outlineConnect=0;fontColor=#232F3E;fillColor=#ED7100;strokeColor=#ffffff;dashed=0;verticalLabelPosition=bottom;verticalAlign=top;align=center;html=1;fontSize=12;fontStyle=0;aspect=fixed;shape=mxgraph.aws4.resourceIcon;resIcon=mxgraph.aws4.ec2;" vertex="1" parent="7yGEbL5kupSrWjwdthF7-23">
          <mxGeometry x="91" y="14.5" width="60" height="60" as="geometry" />
        </mxCell>
        <mxCell id="7yGEbL5kupSrWjwdthF7-25" value="" style="sketch=0;points=[[0,0,0],[0.25,0,0],[0.5,0,0],[0.75,0,0],[1,0,0],[0,1,0],[0.25,1,0],[0.5,1,0],[0.75,1,0],[1,1,0],[0,0.25,0],[0,0.5,0],[0,0.75,0],[1,0.25,0],[1,0.5,0],[1,0.75,0]];outlineConnect=0;fontColor=#232F3E;fillColor=#ED7100;strokeColor=#ffffff;dashed=0;verticalLabelPosition=bottom;verticalAlign=top;align=center;html=1;fontSize=12;fontStyle=0;aspect=fixed;shape=mxgraph.aws4.resourceIcon;resIcon=mxgraph.aws4.ec2;" vertex="1" parent="7yGEbL5kupSrWjwdthF7-23">
          <mxGeometry x="443" y="14.5" width="60" height="60" as="geometry" />
        </mxCell>
        <mxCell id="7yGEbL5kupSrWjwdthF7-37" value="Web server" style="text;html=1;align=center;verticalAlign=middle;whiteSpace=wrap;rounded=0;" vertex="1" parent="7yGEbL5kupSrWjwdthF7-23">
          <mxGeometry x="151" y="44.5" width="60" height="30" as="geometry" />
        </mxCell>
        <mxCell id="7yGEbL5kupSrWjwdthF7-38" value="Web server" style="text;html=1;align=center;verticalAlign=middle;whiteSpace=wrap;rounded=0;" vertex="1" parent="7yGEbL5kupSrWjwdthF7-23">
          <mxGeometry x="391" y="44.5" width="60" height="30" as="geometry" />
        </mxCell>
        <mxCell id="7yGEbL5kupSrWjwdthF7-43" value="App&amp;nbsp;&lt;br&gt;Security Group" style="text;html=1;align=center;verticalAlign=middle;whiteSpace=wrap;rounded=0;" vertex="1" parent="7yGEbL5kupSrWjwdthF7-23">
          <mxGeometry x="16" y="29.5" width="60" height="30" as="geometry" />
        </mxCell>
        <mxCell id="7yGEbL5kupSrWjwdthF7-29" value="" style="rounded=1;arcSize=10;dashed=1;strokeColor=#ff0000;fillColor=none;gradientColor=none;dashPattern=8 4;strokeWidth=2;" vertex="1" parent="7yGEbL5kupSrWjwdthF7-23">
          <mxGeometry x="69" y="4.5" width="454" height="80" as="geometry" />
        </mxCell>
        <mxCell id="7yGEbL5kupSrWjwdthF7-30" value="" style="rounded=1;arcSize=10;dashed=1;strokeColor=#ff0000;fillColor=none;gradientColor=none;dashPattern=8 4;strokeWidth=2;" vertex="1" parent="7yGEbL5kupSrWjwdthF7-1">
          <mxGeometry x="196" y="472" width="454" height="80" as="geometry" />
        </mxCell>
        <mxCell id="7yGEbL5kupSrWjwdthF7-35" value="" style="endArrow=classic;html=1;rounded=0;" edge="1" parent="7yGEbL5kupSrWjwdthF7-1">
          <mxGeometry width="50" height="50" relative="1" as="geometry">
            <mxPoint x="573" y="290" as="sourcePoint" />
            <mxPoint x="573" y="153" as="targetPoint" />
            <Array as="points">
              <mxPoint x="573" y="250" />
            </Array>
          </mxGeometry>
        </mxCell>
        <mxCell id="7yGEbL5kupSrWjwdthF7-39" value="Primary Database&lt;span style=&quot;color: rgba(0, 0, 0, 0); font-family: monospace; font-size: 0px; text-align: start; text-wrap: nowrap;&quot;&gt;%3CmxGraphModel%3E%3Croot%3E%3CmxCell%20id%3D%220%22%2F%3E%3CmxCell%20id%3D%221%22%20parent%3D%220%22%2F%3E%3CmxCell%20id%3D%222%22%20value%3D%22Web%20server%22%20style%3D%22text%3Bhtml%3D1%3Balign%3Dcenter%3BverticalAlign%3Dmiddle%3BwhiteSpace%3Dwrap%3Brounded%3D0%3B%22%20vertex%3D%221%22%20parent%3D%221%22%3E%3CmxGeometry%20x%3D%22290%22%20y%3D%22347%22%20width%3D%2260%22%20height%3D%2230%22%20as%3D%22geometry%22%2F%3E%3C%2FmxCell%3E%3C%2Froot%3E%3C%2FmxGraphModel%3E&lt;/span&gt;" style="text;html=1;align=center;verticalAlign=middle;whiteSpace=wrap;rounded=0;" vertex="1" parent="7yGEbL5kupSrWjwdthF7-1">
          <mxGeometry x="280" y="510" width="60" height="30" as="geometry" />
        </mxCell>
        <mxCell id="7yGEbL5kupSrWjwdthF7-40" value="Secondary Database&lt;span style=&quot;color: rgba(0, 0, 0, 0); font-family: monospace; font-size: 0px; text-align: start; text-wrap: nowrap;&quot;&gt;%3CmxGraphModel%3E%3Croot%3E%3CmxCell%20id%3D%220%22%2F%3E%3CmxCell%20id%3D%221%22%20parent%3D%220%22%2F%3E%3CmxCell%20id%3D%222%22%20value%3D%22Web%20server%22%20style%3D%22text%3Bhtml%3D1%3Balign%3Dcenter%3BverticalAlign%3Dmiddle%3BwhiteSpace%3Dwrap%3Brounded%3D0%3B%22%20vertex%3D%221%22%20parent%3D%221%22%3E%3CmxGeometry%20x%3D%22290%22%20y%3D%22347%22%20width%3D%2260%22%20height%3D%2230%22%20as%3D%22geometry%22%2F%3E%3C%2FmxCell%3E%3C%2Froot%3E%3C%2FmxGraphModel%3E&lt;/span&gt;" style="text;html=1;align=center;verticalAlign=middle;whiteSpace=wrap;rounded=0;" vertex="1" parent="7yGEbL5kupSrWjwdthF7-1">
          <mxGeometry x="480" y="510" width="60" height="30" as="geometry" />
        </mxCell>
        <mxCell id="7yGEbL5kupSrWjwdthF7-41" value="Internet Gateway" style="text;html=1;align=center;verticalAlign=middle;whiteSpace=wrap;rounded=0;" vertex="1" parent="7yGEbL5kupSrWjwdthF7-1">
          <mxGeometry x="430" y="20" width="60" height="30" as="geometry" />
        </mxCell>
        <mxCell id="7yGEbL5kupSrWjwdthF7-42" value="ALB&amp;nbsp;&lt;br&gt;Security Group" style="text;html=1;align=center;verticalAlign=middle;whiteSpace=wrap;rounded=0;" vertex="1" parent="7yGEbL5kupSrWjwdthF7-1">
          <mxGeometry x="385" y="188" width="60" height="30" as="geometry" />
        </mxCell>
        <mxCell id="7yGEbL5kupSrWjwdthF7-45" value="" style="endArrow=classic;html=1;rounded=0;" edge="1" parent="7yGEbL5kupSrWjwdthF7-1">
          <mxGeometry width="50" height="50" relative="1" as="geometry">
            <mxPoint x="251" y="346" as="sourcePoint" />
            <mxPoint x="251" y="484" as="targetPoint" />
            <Array as="points">
              <mxPoint x="251" y="435" />
            </Array>
          </mxGeometry>
        </mxCell>
        <mxCell id="7yGEbL5kupSrWjwdthF7-46" value="" style="endArrow=classic;html=1;rounded=0;" edge="1" parent="7yGEbL5kupSrWjwdthF7-1">
          <mxGeometry width="50" height="50" relative="1" as="geometry">
            <mxPoint x="575" y="346" as="sourcePoint" />
            <mxPoint x="575" y="484" as="targetPoint" />
            <Array as="points">
              <mxPoint x="575" y="435" />
            </Array>
          </mxGeometry>
        </mxCell>
        <mxCell id="7yGEbL5kupSrWjwdthF7-61" value="" style="edgeStyle=segmentEdgeStyle;endArrow=classic;html=1;curved=0;rounded=0;endSize=8;startSize=8;entryX=1;entryY=0.5;entryDx=0;entryDy=0;entryPerimeter=0;" edge="1" parent="7yGEbL5kupSrWjwdthF7-1" source="7yGEbL5kupSrWjwdthF7-5" target="7yGEbL5kupSrWjwdthF7-24">
          <mxGeometry width="50" height="50" relative="1" as="geometry">
            <mxPoint x="351" y="140" as="sourcePoint" />
            <mxPoint x="261" y="240" as="targetPoint" />
            <Array as="points">
              <mxPoint x="311" y="127" />
              <mxPoint x="311" y="316" />
            </Array>
          </mxGeometry>
        </mxCell>
        <mxCell id="7yGEbL5kupSrWjwdthF7-15" value="Nat Gateway" style="text;html=1;align=center;verticalAlign=middle;whiteSpace=wrap;rounded=0;" vertex="1" parent="7yGEbL5kupSrWjwdthF7-1">
          <mxGeometry x="181" y="50" width="60" height="30" as="geometry" />
        </mxCell>
        <mxCell id="7yGEbL5kupSrWjwdthF7-64" value="" style="edgeStyle=segmentEdgeStyle;endArrow=classic;html=1;curved=0;rounded=0;endSize=8;startSize=8;entryX=0;entryY=0.5;entryDx=0;entryDy=0;entryPerimeter=0;" edge="1" parent="7yGEbL5kupSrWjwdthF7-1" source="7yGEbL5kupSrWjwdthF7-5" target="7yGEbL5kupSrWjwdthF7-25">
          <mxGeometry width="50" height="50" relative="1" as="geometry">
            <mxPoint x="410" y="166" as="sourcePoint" />
            <mxPoint x="490" y="276" as="targetPoint" />
            <Array as="points">
              <mxPoint x="511" y="127" />
              <mxPoint x="511" y="316" />
            </Array>
          </mxGeometry>
        </mxCell>
        <mxCell id="7yGEbL5kupSrWjwdthF7-36" value="" style="rounded=1;arcSize=10;dashed=1;strokeColor=#ff0000;fillColor=none;gradientColor=none;dashPattern=8 4;strokeWidth=2;" vertex="1" parent="7yGEbL5kupSrWjwdthF7-1">
          <mxGeometry x="360.25" y="68.5" width="99.5" height="111.5" as="geometry" />
        </mxCell>
        <mxCell id="7yGEbL5kupSrWjwdthF7-68" value="eu-west-2a" style="text;html=1;align=center;verticalAlign=middle;whiteSpace=wrap;rounded=0;" vertex="1" parent="7yGEbL5kupSrWjwdthF7-1">
          <mxGeometry x="31" y="68.5" width="70" height="30" as="geometry" />
        </mxCell>
        <mxCell id="7yGEbL5kupSrWjwdthF7-74" value="eu-west-2" style="text;html=1;align=center;verticalAlign=middle;whiteSpace=wrap;rounded=0;" vertex="1" parent="7yGEbL5kupSrWjwdthF7-1">
          <mxGeometry x="61" width="70" height="30" as="geometry" />
        </mxCell>
        <mxCell id="7yGEbL5kupSrWjwdthF7-67" style="edgeStyle=orthogonalEdgeStyle;rounded=0;orthogonalLoop=1;jettySize=auto;html=1;" edge="1" parent="1" source="7yGEbL5kupSrWjwdthF7-66" target="7yGEbL5kupSrWjwdthF7-6">
          <mxGeometry relative="1" as="geometry" />
        </mxCell>
        <mxCell id="7yGEbL5kupSrWjwdthF7-66" value="" style="html=1;verticalLabelPosition=bottom;align=center;labelBackgroundColor=#ffffff;verticalAlign=top;strokeWidth=2;strokeColor=#0080F0;shadow=0;dashed=0;shape=mxgraph.ios7.icons.user;" vertex="1" parent="1">
          <mxGeometry x="480" y="40" width="60" height="60" as="geometry" />
        </mxCell>
      </root>
    </mxGraphModel>
  </diagram>
</mxfile>
